<svg xmlns="http://www.w3.org/2000/svg" viewBox="0 0 64 64" role="img" aria-label="Ladies Shoe Club logo">
  <rect width="64" height="64" rx="16" fill="#111827"/>
  <path d="M14 39c7.5 2.8 17.7 3.6 30.5 2.5 4.7-.4 7.9 1.7 9.5 6.5H20.6c-5 0-8.2-2.2-9.6-6.7-.5-1.7 1.3-3 3-2.3Z" fill="#f9a8d4"/>
  <path d="M22 20c3 8 8.8 13.1 17.5 15.2 2.8.7 4.7 2.3 5.7 4.8-11.7 1-21.2.2-28.4-2.4 2.2-5.7 3.4-11.6 3.6-17.6 0-1 1.2-1.2 1.6 0Z" fill="#ffffff"/>
  <path d="M16 46h38" stroke="#111827" stroke-width="3" stroke-linecap="round"/>
  <circle cx="47" cy="34" r="2" fill="#f9a8d4"/>
  <text x="32" y="57" text-anchor="middle" font-family="Arial, sans-serif" font-size="8" font-weight="700" fill="#ffffff">LSC</text>
</svg>
